<?xml version="1.0" standalone="no"?>
<!DOCTYPE svg PUBLIC "-//W3C//DTD SVG 20010904//EN"
 "http://www.w3.org/TR/2001/REC-SVG-20010904/DTD/svg10.dtd">
<svg version="1.0" xmlns="http://www.w3.org/2000/svg"
 width="512.000000pt" height="512.000000pt" viewBox="0 0 512.000000 512.000000"
 preserveAspectRatio="xMidYMid meet">

<g transform="translate(0.000000,512.000000) scale(0.100000,-0.100000)"
fill="#000000" stroke="none">
<path d="M2327 5109 c-335 -34 -597 -109 -892 -253 -285 -140 -484 -284 -710
-517 -207 -213 -341 -404 -471 -673 -116 -241 -183 -459 -226 -731 -31 -201
-31 -549 0 -750 69 -441 245 -854 508 -1192 74 -94 45 -85 324 -103 629 -41
1630 -117 1725 -131 110 -16 185 -59 293 -166 l93 -94 26 33 c101 125 234 211
353 228 59 8 353 32 915 75 l200 16 33 37 c242 273 446 666 543 1042 55 217
73 369 73 630 0 329 -33 534 -136 840 -52 154 -182 419 -275 560 -199 302
-483 579 -790 772 -285 180 -631 307 -977 359 -151 23 -472 33 -609 18z m748
-1264 c119 -31 207 -100 259 -204 77 -152 75 -416 -5 -585 -28 -61 -109 -149
-167 -183 -140 -82 -365 -84 -520 -3 -104 54 -102 47 -38 138 l56 80 53 -28
c114 -61 259 -67 344 -14 49 30 95 95 107 148 6 25 5 28 -11 21 -104 -46 -159
-57 -258 -52 -125 6 -181 26 -249 88 -191 174 -113 488 144 581 85 31 195 36
285 13z m-2164 -265 c157 -453 181 -520 188 -520 3 0 65 176 136 390 l130 390
127 0 c71 0 128 -4 128 -9 0 -5 -59 -156 -130 -337 -72 -181 -161 -404 -197
-496 l-67 -168 -137 0 -137 0 -25 68 c-14 37 -99 254 -190 482 -90 228 -167
425 -171 438 l-8 23 133 -3 132 -3 88 -255z m1549 155 l0 -105 -255 0 -255 0
0 -105 0 -105 220 0 220 0 0 -100 0 -100 -220 0 -220 0 0 -195 0 -195 -115 0
-115 0 0 498 c0 274 3 502 7 505 3 4 170 7 370 7 l363 0 0 -105z m-1123 -1085
c65 -23 183 -93 183 -109 0 -5 -26 -42 -57 -82 -31 -41 -58 -76 -59 -78 -2 -2
-25 10 -51 27 -79 50 -140 65 -246 60 -104 -5 -152 -24 -213 -85 -119 -119
-119 -337 0 -456 68 -68 107 -82 231 -82 98 0 116 3 167 27 32 15 73 38 91 52
l34 26 62 -75 c33 -41 61 -79 61 -84 0 -18 -142 -104 -213 -129 -88 -31 -244
-41 -339 -22 -250 48 -408 244 -408 505 0 154 47 274 149 376 74 74 139 111
245 140 97 26 273 21 363 -11z m613 -390 l0 -400 270 0 270 0 0 -105 0 -105
-385 0 -385 0 0 505 0 505 115 0 115 0 0 -400z m897 100 c2 -339 4 -368 38
-426 82 -140 315 -131 387 15 22 45 23 56 26 379 l3 332 115 0 114 0 0 -304
c0 -332 -9 -415 -53 -503 -81 -157 -229 -232 -442 -220 -196 10 -326 99 -388
264 -21 55 -22 76 -25 411 l-3 353 113 -3 113 -3 2 -295z m1525 276 c60 -23
136 -89 159 -141 39 -85 17 -222 -45 -276 -33 -29 -33 -34 4 -49 45 -19 99
-87 116 -149 41 -140 -35 -283 -182 -342 -57 -23 -71 -24 -361 -27 l-303 -3 0
506 0 507 283 -4 c238 -4 289 -7 329 -22z m-3594 -1138 c-2 -13 -10 -23 -18
-23 -8 0 -16 10 -18 23 -3 17 2 22 18 22 16 0 21 -5 18 -22z m3260 -11 c6 -5
12 -24 12 -42 0 -26 -8 -40 -32 -59 l-33 -26 33 0 c25 0 32 -4 32 -20 0 -18
-7 -20 -70 -20 -87 0 -91 14 -20 67 50 38 64 68 34 80 -8 3 -26 1 -39 -5 -18
-8 -26 -8 -34 2 -29 35 76 55 117 23z m177 9 c37 -16 55 -42 55 -81 0 -89
-101 -133 -161 -69 -45 48 -18 145 45 157 11 2 22 5 24 6 1 0 18 -5 37 -13z
m208 -14 c26 -23 21 -50 -17 -88 l-34 -34 34 0 c27 0 34 -4 34 -20 0 -18 -7
-20 -70 -20 -62 0 -70 2 -70 19 0 10 18 31 41 46 50 35 64 58 44 75 -11 9 -23
9 -44 2 -31 -11 -41 -7 -41 14 0 16 57 34 85 27 11 -3 28 -12 38 -21z m146 17
c31 -11 50 -46 37 -68 -4 -5 -1 -21 5 -35 27 -57 -45 -101 -117 -71 -34 14
-36 17 -22 31 12 12 20 13 41 3 30 -14 57 -6 57 16 0 10 -10 15 -30 15 -23 0
-30 4 -30 20 0 15 7 20 24 20 31 0 40 14 21 30 -12 10 -22 10 -39 2 -17 -7
-27 -7 -35 1 -18 18 -13 26 22 36 17 5 32 10 33 10 1 1 15 -4 33 -10z m-3883
-13 c25 -19 11 -31 -37 -31 -51 0 -50 -17 2 -30 49 -12 65 -31 55 -69 -8 -32
-47 -50 -95 -42 -41 6 -54 17 -45 39 5 13 10 14 25 6 25 -13 71 -8 76 8 3 7
-8 15 -24 18 -76 16 -103 55 -64 94 25 25 78 28 107 7z m242 -42 c18 -12 22
-25 22 -70 0 -47 -2 -54 -20 -54 -17 0 -20 7 -20 45 0 33 -5 47 -16 52 -23 9
-44 -23 -44 -64 0 -26 -4 -33 -20 -33 -18 0 -20 7 -20 66 0 65 1 66 24 62 14
-3 31 -1 38 3 19 12 31 11 56 -7z m176 -4 c15 -15 -4 -29 -32 -24 -19 4 -33 0
-42 -11 -21 -25 0 -50 41 -50 42 0 46 -25 7 -39 -82 -29 -135 91 -58 131 25
13 67 9 84 -7z m131 10 c26 -10 46 -45 38 -67 -3 -8 -23 -13 -50 -13 -30 0
-42 -4 -37 -11 4 -7 20 -9 39 -6 23 4 35 1 39 -9 6 -16 -23 -34 -54 -34 -75 0
-106 100 -41 135 32 17 33 17 66 5z m-455 -65 c0 -58 -2 -65 -20 -65 -18 0
-20 7 -20 65 0 58 2 65 20 65 18 0 20 -7 20 -65z"/>
<path d="M2860 3641 c-52 -28 -82 -65 -90 -111 -23 -125 61 -199 212 -187 88
8 181 50 186 85 5 36 -26 128 -55 163 -56 66 -177 90 -253 50z"/>
<path d="M3980 2365 l0 -105 130 0 c97 0 139 4 160 15 91 47 75 162 -25 185
-22 5 -91 10 -152 10 l-113 0 0 -105z"/>
<path d="M3980 1959 l0 -121 163 4 c211 5 247 23 249 117 1 97 -50 120 -259
121 l-153 0 0 -121z"/>
<path d="M4147 1452 c-31 -34 -10 -102 31 -102 19 0 52 38 52 60 0 23 -33 60
-53 60 -8 0 -21 -8 -30 -18z"/>
<path d="M1180 1410 c0 -5 11 -10 25 -10 14 0 25 5 25 10 0 6 -11 10 -25 10
-14 0 -25 -4 -25 -10z"/>
<path d="M828 677 c49 -52 205 -174 322 -252 136 -91 412 -229 560 -280 555
-191 1145 -191 1700 0 142 49 422 187 550 272 58 38 147 103 198 144 90 72 92
74 63 77 -62 6 -836 -59 -884 -74 -62 -20 -135 -79 -198 -160 -29 -36 -68 -74
-90 -84 -73 -38 -159 -21 -214 40 -136 152 -195 199 -270 214 -38 7 -775 63
-1395 106 -162 11 -312 21 -332 23 l-37 2 27 -28z"/>
</g>
</svg>
